#!OML:ASF E:\acrobat2\Project_11_07_03\Capture day 1\Session 1\Acrobat.ASF
:FULLY-SPECIFIED
:DEGREES
716
root 5.70777 28.0894 -7.41138 9.52781 9.96273 -1.03645
lowerback 5.51705 -0.247005 2.05367
upperback 3.75166 -0.232603 0.766439
thorax 0.761084 -0.0845419 -0.353509
lowerneck -4.98361 -1.68361 -2.73248
upperneck 18.5735 -2.42204 2.68613
head 6.5231 -1.12897 1.14523
rclavicle 5.41688e-015 3.1408e-014
rhumerus -37.0007 -2.36688 -81.1468
rradius 30.0037
rwrist 4.03489
rhand -0.813523 -19.8784
rfingers 7.12502
rthumb 24.8109 -48.2888
lclavicle 5.41688e-015 3.1408e-014
lhumerus -22.9865 -29.4164 85.4372
lradius 37.6056
lwrist 4.36869
lhand -3.32348 -13.5378
lfingers 7.12502
lthumb 22.4035 15.183
rfemur -19.6311 -5.13768 25.3295
rtibia 22.594
rfoot -11.6292 -12.3121
rtoes -9.03665
lfemur -24.9072 -3.77369 -14.2072
ltibia 36.2888
lfoot -4.43133 -16.4166
ltoes 29.8726
717
root 5.73736 28.1107 -7.3279 9.46348 9.90618 -1.1346
lowerback 5.37011 -0.291802 2.15524
upperback 3.69923 -0.291525 0.871005
thorax 0.787727 -0.113514 -0.300798
lowerneck -4.96131 -1.67983 -2.60034
upperneck 18.4852 -2.41804 2.60492
head 6.48835 -1.12526 1.09747
rclavicle -3.08116e-015 -5.56597e-015
rhumerus -37.3283 -2.13205 -80.9927
rradius 30.6099
rwrist 3.02088
rhand -1.25215 -19.7174
rfingers 7.12502
rthumb 24.3905 -48.1851
lclavicle -3.08116e-015 -5.56597e-015
lhumerus -23.2552 -29.321 85.634
lradius 37.7466
lwrist 4.38022
lhand -2.69074 -13.5125
lfingers 7.12502
lthumb 23.0107 15.1339
rfemur -19.4695 -5.15968 25.2018
rtibia 22.1561
rfoot -10.7581 -12.3874
rtoes -9.33229
lfemur -24.2629 -3.65757 -14.487
ltibia 36.3006
lfoot -4.22858 -16.6448
ltoes 30.7326
718
root 5.76642 28.1311 -7.24294 9.38553 9.81808 -1.22294
lowerback 5.23383 -0.33033 2.2191
upperback 3.65897 -0.343888 0.976382
thorax 0.821342 -0.139736 -0.226605
lowerneck -5.05205 -1.6587 -2.50079
upperneck 18.4775 -2.38431 2.51506
head 6.49865 -1.10903 1.05376
rclavicle 8.94531e-016 -1.05356e-014
rhumerus -37.6731 -1.92911 -80.8139
rradius 31.2767
rwrist 2.09538
rhand -1.63236 -19.5337
rfingers 7.12502
rthumb 24.026 -48.05
lclavicle 8.94531e-016 -1.05356e-014
lhumerus -23.5353 -29.1954 85.8315
lradius 37.9243
lwrist 4.37974
lhand -2.23976 -13.5458
lfingers 7.12502
lthumb 23.4434 15.0461
rfemur -19.2816 -5.16011 25.031
rtibia 21.688
rfoot -9.81426 -12.4814
rtoes -9.56232
lfemur -23.4794 -3.62746 -14.7485
ltibia 35.9586
lfoot -4.03352 -16.8227
ltoes 31.8086
719
root 5.79487 28.1491 -7.15745 9.32129 9.6826 -1.2881
lowerback 5.09763 -0.357243 2.24556
upperback 3.62462 -0.382659 1.06761
thorax 0.861448 -0.159591 -0.14675
lowerneck -5.40205 -1.58935 -2.5104
upperneck 18.6796 -2.26455 2.39353
head 6.6204 -1.05883 1.02269
rclavicle -1.35174e-014 3.77691e-015
rhumerus -37.9953 -1.76285 -80.6197
rradius 31.9511
rwrist 1.29528
rhand -1.91789 -19.3411
rfingers 7.12502
rthumb 23.7521 -47.8932
lclavicle -1.35174e-014 3.77691e-015
lhumerus -23.8246 -29.0519 86.0108
lradius 38.1543
lwrist 4.37251
lhand -1.94608 -13.6008
lfingers 7.12502
lthumb 23.7251 14.9548
rfemur -19.1195 -5.14628 24.8098
rtibia 21.233
rfoot -8.80011 -12.5846
rtoes -9.74056
lfemur -22.6025 -3.66132 -15.0098
ltibia 35.2619
lfoot -4.01833 -16.9229
ltoes 32.7012
720
root 5.82307 28.1634 -7.07252 9.29127 9.49049 -1.32754
lowerback 4.94122 -0.368775 2.24112
upperback 3.58367 -0.402858 1.13575
thorax 0.906432 -0.1705 -0.0743188
lowerneck -5.85277 -1.47213 -2.62367
upperneck 18.9374 -2.06123 2.25896
head 6.77725 -0.976525 1.01084
rclavicle -1.76918e-014 2.8625e-014
rhumerus -38.2847 -1.63847 -80.4167
rradius 32.5837
rwrist 0.653197
rhand -2.10241 -19.1199
rfingers 7.12502
rthumb 23.5752 -47.6948
lclavicle -1.76918e-014 2.8625e-014
lhumerus -24.1503 -28.8894 86.1712
lradius 38.448
lwrist 4.35759
lhand -1.78847 -13.6475
lfingers 7.12502
lthumb 23.8763 14.8884
rfemur -19.0275 -5.13246 24.5415
rtibia 20.8358
rfoot -7.74177 -12.6699
rtoes -9.85629
lfemur -21.6778 -3.73951 -15.2782
ltibia 34.2151
lfoot -4.29828 -16.9364
ltoes 33.1382
721
root 5.85089 28.1739 -6.98892 9.28758 9.25004 -1.35086
lowerback 4.76795 -0.369947 2.21011
upperback 3.5378 -0.41074 1.18444
thorax 0.956009 -0.17554 -0.0076136
lowerneck -6.40801 -1.31913 -2.80568
upperneck 19.2463 -1.78905 2.09427
head 6.96861 -0.869033 1.00655
rclavicle -2.34566e-014 -3.77691e-015
rhumerus -38.5089 -1.54761 -80.2132
rradius 33.1311
rwrist 0.174415
rhand -2.21436 -18.8351
rfingers 7.12502
rthumb 23.4678 -47.4239
lclavicle -2.34566e-014 -3.77691e-015
lhumerus -24.5161 -28.6675 86.3102
lradius 38.7973
lwrist 4.32877
lhand -1.7663 -13.6752
lfingers 7.12502
lthumb 23.8975 14.858
rfemur -19.0043 -5.1141 24.2367
rtibia 20.5041
rfoot -6.6788 -12.7233
rtoes -9.87813
lfemur -20.7254 -3.84403 -15.5426
ltibia 32.8364
lfoot -4.88289 -16.8666
ltoes 32.9799
722
root 5.87836 28.1811 -6.90719 9.29298 8.97315 -1.36831
lowerback 4.60311 -0.366253 2.1587
upperback 3.48564 -0.41236 1.22019
thorax 0.994593 -0.177813 0.0570277
lowerneck -6.96452 -1.16411 -2.9818
upperneck 19.5677 -1.51045 1.93186
head 7.1651 -0.759648 1.00396
rclavicle 4.47266e-015 1.55052e-014
rhumerus -38.6619 -1.47034 -80.0184
rradius 33.58
rwrist -0.185964
rhand -2.28716 -18.5119
rfingers 7.12502
rthumb 23.3979 -47.1096
lclavicle 4.47266e-015 1.55052e-014
lhumerus -24.9125 -28.3813 86.4329
lradius 39.1717
lwrist 4.31316
lhand -1.87732 -13.7016
lfingers 7.12502
lthumb 23.7911 14.8454
rfemur -19.0307 -5.07284 23.9026
rtibia 20.235
rfoot -5.65852 -12.7322
rtoes -9.84005
lfemur -19.7578 -3.97539 -15.7876
ltibia 31.179
lfoot -5.59772 -16.7342
ltoes 32.7226
723
root 5.90555 28.1853 -6.8279 9.29991 8.679 -1.37507
lowerback 4.4593 -0.362758 2.08088
upperback 3.43093 -0.414199 1.2484
thorax 1.01895 -0.180695 0.128829
lowerneck -7.4816 -1.01893 -3.09917
upperneck 19.8601 -1.25446 1.78982
head 7.34641 -0.656908 0.997675
rclavicle 7.65321e-015 1.07344e-014
rhumerus -38.7662 -1.3957 -79.8332
rradius 33.9656
rwrist -0.475254
rhand -2.32084 -18.2274
rfingers 7.12502
rthumb 23.3656 -46.8292
lclavicle 7.65321e-015 1.07344e-014
lhumerus -25.3113 -28.0502 86.542
lradius 39.5456
lwrist 4.33632
lhand -2.12764 -13.7553
lfingers 7.12502
lthumb 23.551 14.8227
rfemur -19.0958 -4.99467 23.5276
rtibia 20.0259
rfoot -4.73863 -12.6905
rtoes -9.78753
lfemur -18.8119 -4.14804 -16.0227
ltibia 29.36
lfoot -6.20432 -16.5874
ltoes 33.0697
724
root 5.9324 28.1865 -6.75183 9.30679 8.3882 -1.35219
lowerback 4.35036 -0.365 1.96557
upperback 3.38066 -0.423572 1.26448
thorax 1.02853 -0.187922 0.209638
lowerneck -7.87924 -0.895261 -3.04143
upperneck 20.0399 -1.04305 1.58524
head 7.47004 -0.56946 0.93874
rclavicle -6.4605e-015 3.97569e-016
rhumerus -38.8272 -1.32699 -79.6626
rradius 34.3268
rwrist -0.73743
rhand -2.32421 -18.0504
rfingers 7.12502
rthumb 23.3624 -46.6526
lclavicle -6.4605e-015 3.97569e-016
lhumerus -25.6641 -27.7001 86.623
lradius 39.8947
lwrist 4.41049
lhand -2.55073 -13.8876
lfingers 7.12502
lthumb 23.1451 14.742
rfemur -19.1982 -4.87274 23.0838
rtibia 19.876
rfoot -3.95688 -12.5859
rtoes -9.93454
lfemur -17.9417 -4.36495 -16.286
ltibia 27.5417
lfoot -6.63497 -16.4476
ltoes 33.9597
725
root 5.95922 28.1847 -6.67957 9.31867 8.10505 -1.30134
lowerback 4.2896 -0.374406 1.82718
upperback 3.32216 -0.441292 1.26323
thorax 1.00278 -0.19974 0.286167
lowerneck -8.18732 -0.78054 -2.86591
upperneck 20.1546 -0.863259 1.37321
head 7.5571 -0.489817 0.855275
rclavicle 8.64713e-015 -2.50469e-014
rhumerus -38.8668 -1.261 -79.5149
rradius 34.6893
rwrist -1.01836
rhand -2.32149 -18.0087
rfingers 7.12502
rthumb 23.365 -46.6106
lclavicle 8.64713e-015 -2.50469e-014
lhumerus -25.9847 -27.347 86.6764
lradius 40.2215
lwrist 4.52188
lhand -3.14555 -14.1248
lfingers 7.12502
lthumb 22.5743 14.5754
rfemur -19.3496 -4.69342 22.5684
rtibia 19.7851
rfoot -3.31904 -12.4014
rtoes -10.4377
lfemur -17.2064 -4.62974 -16.5924
ltibia 25.8892
lfoot -6.95414 -16.2905
ltoes 35.0896
726
root 5.98565 28.1801 -6.6115 9.34367 7.8365 -1.23427
lowerback 4.27181 -0.391657 1.68095
upperback 3.25232 -0.468114 1.24667
thorax 0.941396 -0.216207 0.352011
lowerneck -8.36091 -0.674337 -2.6003
upperneck 20.166 -0.715434 1.16811
head 7.58693 -0.41841 0.756295
rclavicle -4.07509e-015 3.06128e-014
rhumerus -38.8933 -1.20316 -79.3899
rradius 35.0713
rwrist -1.3198
rhand -2.29446 -18.1148
rfingers 7.12502
rthumb 23.3909 -46.7133
lclavicle -4.07509e-015 3.06128e-014
lhumerus -26.2855 -26.9904 86.7016
lradius 40.5502
lwrist 4.65525
lhand -3.72533 -14.3362
lfingers 7.12502
lthumb 22.0177 14.4305
rfemur -19.5666 -4.44904 21.9983
rtibia 19.7513
rfoot -2.81025 -12.1396
rtoes -11.4053
lfemur -16.6648 -4.92949 -16.9366
ltibia 24.5436
lfoot -7.33184 -16.0443
ltoes 35.8107
